Coordinates
version=1
nRows=7
nColumns=63
inDegrees=yes

Units are S.I. units (second, meters, Newtons, ...)
If the header above contains a line with 'inDegrees', this indicates whether rotational values are in degrees (yes) or radians (no).

endheader
time	pelvis_tilt	pelvis_list	pelvis_rotation	pelvis_tx	pelvis_ty	pelvis_tz	hip_flexion_r	hip_adduction_r	hip_rotation_r	knee_angle_r	knee_angle_r_beta	ankle_angle_r	subtalar_angle_r	mtp_angle_r	hip_flexion_l	hip_adduction_l	hip_rotation_l	knee_angle_l	knee_angle_l_beta	ankle_angle_l	subtalar_angle_l	mtp_angle_l	L5_S1_Flex_Ext	L5_S1_Lat_Bending	L5_S1_axial_rotation	L4_L5_Flex_Ext	L4_L5_Lat_Bending	L4_L5_axial_rotation	L3_L4_Flex_Ext	L3_L4_Lat_Bending	L3_L4_axial_rotation	L2_L3_Flex_Ext	L2_L3_Lat_Bending	L2_L3_axial_rotation	L1_L2_Flex_Ext	L1_L2_Lat_Bending	L1_L2_axial_rotation	L1_T12_Flex_Ext	L1_T12_Lat_Bending	L1_T12_axial_rotation	Abs_r3	Abs_r2	Abs_r1	Abs_t1	Abs_t2	neck_flexion	neck_bending	neck_rotation	arm_flex_r	arm_add_r	arm_rot_r	elbow_flex_r	pro_sup_r	wrist_flex_r	wrist_dev_r	arm_flex_l	arm_add_l	arm_rot_l	elbow_flex_l	pro_sup_l	wrist_flex_l	wrist_dev_l
      2.61016949	      0.05492160	      1.55615025	     97.47040695	      0.14464089	      0.58853668	      0.86747230	      4.11645946	     -3.52577065	    -10.19633258	      6.81626368	      0.11896624	     28.88625270	     15.64612468	      0.00000000	      5.10126468	      4.37302309	      6.74944813	      5.61339518	      0.09797223	     20.76258195	     -9.49575523	      0.00000000	      0.22980305	     -0.83985253	     -0.66667477	      0.42676724	     -1.11700386	     -0.70834195	      0.37754343	     -2.04201743	     -0.70834195	      0.26264190	     -2.04201743	     -0.58334043	      0.21339511	     -1.71262727	     -0.54167325	      0.13130946	     -1.30093156	     -0.50000608	      1.64146020	     -9.50057973	     -3.70784509	      0.00000000	      0.00000000	      9.21654348	     12.85281989	     -4.00046748	     19.79007525	    -12.22315643	     54.54751796	     78.75302602	     87.18081752	      3.56151156	     16.01281602	      0.51809341	    -16.48175268	     30.43437601	     40.62602307	     85.39831519	    -11.35393643	      0.41818600
      2.62711864	      0.13990805	      1.73089308	     97.82585353	      0.14354698	      0.58822457	      0.86510309	      3.37607236	     -3.39154431	    -10.44836673	      6.06012754	      0.10576918	     29.00479830	     15.86799065	      0.00000000	      4.59575462	      4.31351462	      7.51437451	      5.18060389	      0.09041860	     21.07447130	     -9.89840981	      0.00000000	      0.23680843	     -0.79534111	     -0.72641880	      0.43977693	     -1.05780367	     -0.77181998	      0.38905257	     -1.93379237	     -0.77181998	      0.27064835	     -1.93379237	     -0.63561645	      0.21990031	     -1.62185958	     -0.59021528	      0.13531234	     -1.23198337	     -0.54481410	      1.69149892	     -8.99705767	     -4.04012346	      0.00000000	      0.00000000	      9.49767941	     13.00597591	     -2.65462426	     19.88541114	    -11.36712878	     57.36523531	     69.09352400	     87.18093707	      0.77997745	     15.82569397	      0.18391420	    -16.24991748	     30.44388466	     40.51873991	     84.83834959	    -10.48059298	      0.14020438
      2.64406780	      0.31571364	      1.92711176	     98.32904612	      0.14191666	      0.58792336	      0.86200618	      2.53497359	     -3.17375773	    -10.75746239	      5.27802525	      0.09211892	     29.19383016	     16.00145515	      0.00000000	      4.04075852	      4.15938664	      8.39608601	      4.74989075	      0.08290123	     21.56666574	    -10.05365461	      0.00000000	      0.25003649	     -0.73202060	     -0.74387736	      0.46434276	     -0.97358740	     -0.79036969	      0.41078494	     -1.77983489	     -0.79036969	      0.28576670	     -1.77983489	     -0.65089269	      0.23218388	     -1.49273641	     -0.60440035	      0.14287085	     -1.13389991	     -0.55790802	      1.78598562	     -8.28076343	     -4.13722270	      0.00000000	      0.00000000	      9.70294061	     12.89396907	     -1.24005044	     19.95577448	    -10.39373190	     60.58353236	     58.97139430	     86.64017433	     -2.29019197	     13.97203935	      0.10376583	    -15.89818676	     31.15699392	     40.13285902	     84.41612056	     -9.84686966	      0.13534478
      2.66101695	      0.70399200	      2.05269457	     98.86163225	      0.13985345	      0.58724258	      0.85869488	      1.86348248	     -2.76725828	    -11.08131205	      4.68952261	      0.08184761	     29.40978295	     15.98436876	      0.00000000	      3.59423273	      3.81643239	      9.44034601	      4.32938215	      0.07556197	     22.04358290	    -10.46881294	      0.00000000	      0.26963677	     -0.63275770	     -0.75080645	      0.50074245	     -0.84156774	     -0.79773185	      0.44298626	     -1.53848707	     -0.79773185	      0.30816787	     -1.53848707	     -0.65695564	      0.25038471	     -1.29031950	     -0.61003024	      0.15407045	     -0.98014167	     -0.56310484	      1.92598852	     -7.15788163	     -4.17576022	      0.00000000	      0.00000000	     10.29378728	     12.44930510	      0.33689794	     20.26224653	     -9.44094188	     65.39209341	     48.76296939	     83.72250285	     -6.09281941	     10.54523743	      0.07519126	    -15.38157064	     32.17200482	     39.70125205	     83.79703134	     -9.85450198	      0.06237232
      2.67796610	      1.10500163	      2.20801893	     99.32681303	      0.13757322	      0.58643782	      0.85501503	      1.07726315	     -2.32786125	    -11.07898841	      3.97484053	      0.06937405	     29.47276269	     15.65431947	      0.00000000	      3.00266369	      3.43865664	     10.49771577	      3.72422386	      0.06499997	     22.36513152	    -10.80324289	      0.00000000	      0.27878893	     -0.51964824	     -0.67695535	      0.51773892	     -0.69113215	     -0.71926506	      0.45802234	     -1.26347272	     -0.71926506	      0.31862787	     -1.26347272	     -0.59233593	      0.25888340	     -1.05966668	     -0.55002622	      0.15930000	     -0.80493512	     -0.50771651	      1.99136146	     -5.87836477	     -3.76502256	      0.00000000	      0.00000000	     11.21004587	     11.34986215	      1.56453743	     20.30636119	     -8.71656092	     71.38080828	     39.12434614	     75.26303923	     -8.38094116	      6.28050713	      0.54542580	    -14.94226670	     34.42970533	     39.07501948	     83.52494283	    -10.08493069	     -0.00045553
      2.69491525	      1.52675115	      2.33705513	     99.67413084	      0.13531708	      0.58547999	      0.85132235	      0.37926891	     -1.87996077	    -10.84032581	      3.36884562	      0.05879745	     29.39785448	     15.09972062	      0.00000000	      2.44314468	      3.03762342	     11.57766748	      3.13601948	      0.05473387	     22.47223937	    -11.37619347	      0.00000000	      0.28501104	     -0.39502578	     -0.59478478	      0.52929401	     -0.52538428	     -0.63195883	      0.46824465	     -0.96046567	     -0.63195883	      0.32573912	     -0.96046567	     -0.52043668	      0.26466126	     -0.80553656	     -0.48326263	      0.16285531	     -0.61189493	     -0.44608858	      2.03580539	     -4.46861060	     -3.30801449	      0.00000000	      0.00000000	     12.43981528	      9.77350919	      2.72828761	     20.48049461	     -8.31084334	     80.85276109	     30.81938218	     61.50100268	     -9.42905790	      1.75282237	      1.00776018	    -14.47256485	     36.56276509	     38.48324996	     83.77875610	    -10.42666732	     -0.17248038
      2.71186441	      1.89021167	      2.45516891	     99.95271590	      0.13333387	      0.58464508	      0.84781830	     -0.26193210	     -1.48273336	    -10.38759450	      2.86810740	      0.05005792	     29.16864529	     14.26771028	      0.00000000	      1.90368780	      2.67783996	     12.80100414	      2.59388063	      0.04527176	     22.19399335	    -12.35125334	      0.00000000	      0.28575839	     -0.27661713	     -0.55278331	      0.53068191	     -0.36790078	     -0.58733227	      0.46947246	     -0.67256688	     -0.58733227	      0.32659326	     -0.67256688	     -0.48368539	      0.26535524	     -0.56407765	     -0.44913644	      0.16328234	     -0.42847993	     -0.41458748	      2.04114360	     -3.12914827	     -3.07441493	      0.00000000	      0.00000000	     13.72201515	      7.94595964	      4.03070460	     21.03548081	     -7.79229858	     96.94612008	     23.77891510	     42.71034253	     -9.09949617	     -2.43147826	      1.29836701	    -14.07048208	     38.19260242	     37.96997368	     84.54587590	    -10.75746622	     -0.27273729
